<svg version="1.0" xmlns="http://www.w3.org/2000/svg"
 width="1280.000000pt" height="770.000000pt" viewBox="0 0 1280.000000 770.000000"
 preserveAspectRatio="xMidYMid meet">
<g transform="translate(0.000000,770.000000) scale(0.100000,-0.100000)"
fill="#000000" stroke="none">
<path d="M9758 7695 c-19 -19 -333 -58 -588 -74 l-285 -17 -350 38 c-192 21
-399 38 -460 38 l-110 0 -60 -54 c-33 -30 -58 -56 -55 -59 3 -3 56 -30 119
-62 l114 -57 99 13 99 12 165 -111 c91 -62 173 -112 182 -112 41 -1 46 -15 24
-72 -12 -29 -84 -238 -161 -464 -76 -226 -144 -421 -151 -434 -9 -17 -18 -21
-40 -16 -25 4 -30 1 -39 -26 -15 -43 -14 -59 6 -74 17 -12 17 -15 -1 -69 -11
-31 -27 -60 -35 -64 -9 -4 -180 0 -381 10 -201 9 -477 22 -615 28 -137 7 -333
16 -435 21 -102 6 -342 17 -535 25 -192 9 -541 24 -775 35 -234 11 -531 24
-660 30 -221 10 -402 30 -458 51 -17 7 -22 14 -18 27 4 9 28 70 53 136 l46
118 32 -5 c31 -5 31 -5 58 71 33 92 33 98 6 105 -22 6 -22 15 -4 73 6 19 -2
24 -77 51 -46 17 -90 34 -99 38 -13 5 -20 -2 -29 -30 -7 -20 -17 -38 -24 -41
-6 -2 -131 37 -276 87 l-265 91 -365 39 c-628 66 -639 68 -686 88 -47 21 -62
46 -71 116 -10 85 -45 118 -92 88 -58 -37 -101 -111 -101 -173 0 -15 -17 -49
-41 -81 -57 -76 -108 -185 -111 -239 -2 -25 1 -118 6 -208 l8 -163 -27 -42
c-15 -23 -37 -53 -49 -66 -23 -26 -13 -22 50 20 66 45 74 76 67 271 -4 109 -2
171 5 184 6 11 28 32 49 47 33 23 44 25 71 18 44 -13 194 -113 226 -151 30
-36 33 -47 40 -153 3 -43 12 -104 20 -135 8 -32 17 -93 21 -137 7 -97 40 -229
66 -271 47 -77 119 -128 360 -252 253 -130 284 -140 332 -102 14 11 31 36 37
55 10 30 9 41 -7 73 -16 34 -38 48 -252 159 -128 67 -244 132 -257 144 -32 30
-61 131 -69 239 -3 47 -13 107 -21 134 -8 27 -14 57 -14 66 0 9 27 40 60 69
l59 52 98 -37 c54 -20 125 -50 158 -66 86 -44 222 -133 234 -155 5 -10 19 -68
31 -128 42 -213 38 -545 -11 -819 -23 -132 -35 -172 -53 -179 -8 -3 -55 -80
-106 -171 -50 -91 -96 -166 -101 -166 -5 0 -57 13 -115 30 -448 126 -903 129
-1347 11 -463 -124 -903 -391 -1214 -740 -374 -419 -571 -867 -645 -1466 -34
-278 6 -648 106 -978 239 -781 884 -1423 1669 -1657 297 -88 689 -138 881
-112 45 7 137 19 206 28 69 9 193 33 275 54 896 228 1599 935 1819 1833 53
214 69 353 69 597 1 233 -12 364 -53 550 -140 630 -521 1190 -1054 1549 -41
28 -77 54 -80 59 -3 5 17 102 44 217 38 163 54 217 77 248 15 22 33 42 38 44
10 3 288 -299 669 -726 77 -86 185 -205 241 -266 332 -357 1495 -1650 1495
-1662 0 -7 -12 -32 -26 -54 -37 -60 -80 -173 -98 -261 -54 -263 30 -525 237
-736 164 -166 359 -265 587 -295 l95 -13 62 -229 c34 -127 62 -235 63 -242 0
-6 -19 -22 -42 -35 -44 -24 -54 -43 -44 -84 12 -47 51 -56 238 -52 l170 3 24
28 c13 15 24 35 24 43 0 24 -56 74 -83 74 -14 0 -29 6 -35 13 -16 19 -143 500
-134 508 4 4 72 19 152 33 80 15 218 42 307 61 90 19 169 35 177 35 8 0 46
-46 85 -102 259 -379 581 -660 986 -859 251 -123 505 -199 805 -240 153 -22
506 -16 668 9 781 125 1423 562 1816 1234 153 262 270 601 309 898 9 63 21
156 28 207 26 200 -20 583 -106 875 -269 913 -1055 1607 -1997 1763 -495 82
-1000 16 -1458 -190 -55 -25 -102 -45 -105 -45 -3 0 -49 67 -104 148 -61 92
-108 152 -124 159 -18 8 -39 38 -66 92 -108 214 -199 334 -306 406 -30 20 -55
41 -55 48 1 7 20 84 43 172 40 151 44 160 66 160 42 1 69 88 31 98 -11 3 -20
11 -20 19 0 8 65 205 145 437 80 233 143 427 140 431 -2 4 -25 13 -50 20 -25
7 -48 17 -52 23 -10 17 80 92 128 106 24 7 85 13 135 13 l91 -1 49 50 48 49
79 0 c108 0 203 23 332 82 106 48 112 52 180 132 38 46 71 88 73 94 2 6 -19
22 -47 36 -27 14 -52 30 -56 36 -7 11 -19 13 -27 5z m-1256 -239 c112 -16 669
-135 681 -146 5 -4 -6 -24 -23 -44 -28 -32 -38 -36 -79 -36 -27 0 -70 7 -97
17 -37 12 -88 16 -205 17 l-156 1 -141 94 c-78 52 -142 98 -142 102 0 12 50
11 162 -5z m-5152 -677 c29 -7 44 -22 87 -86 42 -63 113 -200 113 -219 0 -13
-36 1 -94 36 -75 46 -148 80 -256 120 -44 16 -76 34 -78 43 -2 9 13 41 33 72
l35 56 63 -6 c34 -4 78 -11 97 -16z m262 -23 c65 -7 129 -11 143 -8 29 5 482
-146 489 -163 2 -6 -19 -68 -46 -137 -34 -88 -55 -129 -68 -133 -38 -12 -228
82 -395 196 -116 79 -285 224 -285 245 0 17 11 17 162 0z m2 -195 c122 -97
329 -218 464 -271 18 -7 32 -20 32 -29 0 -27 -116 -345 -127 -348 -6 -2 -34
40 -63 93 -75 142 -122 206 -232 320 -54 57 -98 108 -98 114 0 6 -13 45 -30
87 -16 41 -30 76 -30 79 0 14 30 -2 84 -45z m92 -293 c32 -35 79 -95 105 -135
61 -93 149 -266 149 -291 0 -11 -49 -160 -109 -330 -90 -255 -119 -327 -168
-408 -33 -55 -79 -134 -103 -176 -30 -53 -50 -78 -62 -78 -10 0 -21 6 -24 13
-2 7 32 79 77 161 92 165 99 196 55 231 l-27 22 19 104 c39 202 47 291 46 524
0 173 -4 252 -17 320 -9 50 -17 93 -17 98 0 18 22 2 76 -55z m1294 -318 c239
-11 527 -25 640 -30 113 -6 309 -15 435 -20 127 -6 424 -19 660 -30 237 -11
531 -24 655 -30 454 -20 727 -44 747 -63 10 -10 -95 -319 -487 -1436 -275
-783 -505 -1430 -512 -1438 -8 -10 -30 -13 -77 -11 l-66 3 -33 120 c-18 66
-50 187 -71 268 l-39 148 39 24 c46 30 58 64 35 100 -23 35 -51 40 -228 40
-143 0 -159 -2 -185 -21 -39 -29 -43 -75 -8 -103 15 -11 42 -23 61 -27 19 -3
38 -14 43 -23 20 -37 131 -475 123 -483 -6 -6 -68 56 -150 149 -176 199 -146
166 -962 1074 -377 420 -707 789 -735 821 -27 31 -196 219 -375 419 -229 255
-325 368 -323 383 1 11 16 61 34 110 l32 89 156 -6 c86 -4 352 -16 591 -27z
m3537 -314 c33 -24 83 -74 111 -112 54 -72 182 -301 182 -326 0 -8 -7 -23 -15
-34 -8 -10 -15 -29 -15 -41 0 -11 44 -87 97 -168 93 -141 96 -148 78 -161 -11
-8 -26 -13 -34 -12 -12 3 -467 658 -507 731 -13 24 -13 34 2 89 24 95 20 94
101 34z m33 -646 c115 -169 210 -312 210 -318 0 -5 -39 -40 -87 -78 -298 -234
-557 -571 -727 -944 -82 -181 -170 -492 -192 -685 -10 -87 -10 -87 -133 -79
-58 3 -109 9 -113 13 -7 6 787 2369 806 2399 4 7 11 10 16 7 5 -3 104 -145
220 -315z m1940 -252 c326 -34 663 -157 942 -345 90 -61 120 -84 249 -197 181
-156 362 -399 479 -641 61 -126 130 -311 130 -349 0 -12 4 -26 9 -31 13 -14
47 -190 62 -313 15 -136 6 -456 -16 -582 -21 -118 -60 -270 -82 -318 -9 -20
-15 -40 -15 -44 3 -12 -87 -220 -124 -288 -33 -60 -128 -204 -190 -290 -90
-125 -288 -321 -411 -407 -246 -173 -409 -256 -668 -337 -332 -103 -743 -113
-1114 -26 -46 11 -97 26 -115 34 -17 7 -63 23 -103 35 -126 38 -493 233 -493
262 0 5 -6 9 -13 9 -18 0 -147 107 -246 203 -101 99 -261 289 -261 311 0 9 71
25 85 20 7 -3 27 1 43 10 16 8 138 43 272 76 133 33 332 85 443 116 133 36
203 51 205 44 3 -7 10 -6 22 5 23 20 479 158 503 151 10 -2 21 2 24 9 7 19
113 49 126 36 12 -12 84 38 109 77 41 62 13 162 -57 203 -39 24 -41 32 -20 82
19 45 19 43 -5 43 -17 0 -20 -7 -20 -41 0 -23 -5 -46 -12 -53 -15 -15 -164
-16 -173 -1 -4 6 3 21 14 33 12 13 25 40 28 60 4 27 12 40 30 47 36 13 89 11
102 -5 7 -8 21 -12 31 -9 12 3 20 0 20 -7 0 -10 5 -9 18 3 9 8 37 18 62 21
l45 7 40 -57 c22 -31 45 -72 51 -92 6 -21 16 -36 23 -34 7 1 20 -3 29 -10 9
-7 1 9 -18 36 -18 27 -41 74 -51 105 -10 32 -18 46 -18 33 -1 -14 -6 -22 -13
-20 -19 7 -32 34 -24 53 5 14 9 15 21 5 12 -10 15 -9 15 7 0 28 38 73 61 73
17 0 18 3 7 20 -9 15 -10 22 -1 31 17 17 76 -27 68 -51 -5 -15 2 -21 31 -29
21 -6 55 -24 76 -41 26 -21 38 -26 38 -16 0 8 6 16 12 18 7 3 -8 12 -34 20
-26 9 -76 40 -112 69 -57 45 -66 57 -66 85 0 21 6 37 18 43 15 9 15 10 1 11
-18 0 -33 26 -23 41 3 5 25 9 50 9 32 0 44 -4 44 -15 0 -8 -5 -15 -12 -15 -6
0 -9 -2 -6 -5 3 -3 25 1 49 9 24 9 64 16 89 16 38 0 46 3 46 19 0 18 -3 18
-45 5 -32 -9 -72 -12 -134 -7 -73 5 -90 10 -102 27 -13 18 -12 24 5 55 19 34
19 35 1 14 -23 -27 -34 -29 -51 -8 -10 13 -10 19 5 35 17 19 17 19 -13 8 -36
-14 -62 1 -62 35 0 20 0 20 -14 1 -12 -15 -18 -17 -33 -8 -10 7 -17 20 -15 30
3 16 1 16 -13 -3 -18 -25 -53 -30 -77 -10 -32 25 -106 137 -112 170 -5 27 -11
34 -24 30 -13 -3 -29 12 -59 54 -147 211 -897 1321 -900 1333 -7 25 184 125
372 195 125 47 363 102 515 119 72 7 358 4 450 -6z m-7620 -118 c118 -21 343
-82 365 -100 5 -4 25 -11 42 -15 18 -3 35 -11 39 -16 8 -14 -331 -697 -359
-723 -12 -12 -51 -91 -86 -176 -72 -176 -206 -450 -221 -450 -5 0 -11 33 -13
73 -2 59 -3 53 -5 -34 l-2 -106 -54 -110 c-30 -61 -59 -114 -66 -118 -6 -4
-21 1 -32 12 l-20 18 20 -34 c16 -26 18 -39 11 -53 -13 -25 -38 -23 -49 5 -8
20 -9 19 -9 -10 -1 -34 -6 -37 -51 -33 -20 1 -23 -1 -13 -11 9 -9 10 -16 2
-26 -16 -18 -32 -16 -63 8 -32 25 -33 39 -3 40 13 0 1 8 -32 20 -29 10 -69 31
-88 45 -28 21 -37 24 -44 13 -10 -17 -4 -23 39 -37 45 -15 151 -103 151 -125
1 -10 -6 -31 -14 -46 -17 -35 -113 -71 -185 -71 -39 0 -46 -3 -46 -20 0 -11 1
-20 2 -20 1 0 20 6 42 14 53 19 160 10 166 -13 2 -9 9 -37 16 -63 11 -43 10
-50 -10 -83 -12 -20 -40 -48 -61 -62 -31 -20 -36 -28 -26 -39 10 -11 18 -7 47
25 19 21 48 46 63 55 28 17 29 17 63 -9 19 -14 48 -31 64 -37 47 -16 50 -49
13 -160 -4 -13 0 -18 16 -18 18 0 21 6 21 45 0 66 23 115 53 115 14 0 44 7 68
16 l44 15 33 -38 c18 -20 37 -55 43 -78 8 -32 15 -40 33 -40 l24 0 -30 43
c-16 23 -34 67 -41 97 -11 53 -10 56 19 97 23 32 37 42 54 40 l22 -2 -22 18
c-13 11 -20 24 -16 30 10 16 17 15 46 -7 19 -16 22 -22 12 -34 -10 -12 -5 -16
33 -27 25 -7 48 -16 51 -21 2 -4 18 -18 34 -29 21 -15 28 -17 24 -7 -3 10 1
17 13 19 12 2 1 10 -30 20 -61 22 -173 110 -181 143 -8 33 -1 44 38 61 20 8
24 13 13 14 -24 0 -18 34 7 38 26 5 45 -16 26 -28 -22 -14 -9 -12 40 5 23 8
63 15 89 15 39 0 47 3 47 19 0 18 -3 18 -49 4 -54 -16 -147 -10 -147 10 0 25
185 306 213 322 21 13 26 20 16 25 -9 6 -7 20 11 62 47 111 184 375 229 443
26 39 45 79 44 90 -4 23 311 665 326 665 5 0 37 -21 70 -47 34 -27 81 -64 106
-83 99 -76 365 -366 365 -398 0 -5 9 -17 21 -28 11 -10 43 -55 70 -100 160
-265 267 -582 299 -886 15 -135 7 -432 -15 -558 -20 -117 -53 -252 -66 -264
-5 -6 -9 -21 -9 -34 0 -75 -188 -461 -280 -575 -5 -7 -33 -43 -61 -82 -100
-135 -261 -296 -389 -389 -192 -140 -402 -256 -555 -306 -38 -13 -83 -29 -100
-36 -57 -23 -240 -63 -365 -80 -155 -20 -487 -15 -623 11 -104 19 -268 61
-312 79 -16 7 -55 20 -85 30 -127 40 -476 233 -524 290 -6 6 -31 25 -56 42
-69 45 -277 257 -358 366 -39 53 -72 98 -72 101 0 2 -21 35 -46 73 -88 130
-234 467 -234 538 0 12 -4 26 -9 32 -12 12 -47 186 -61 304 -13 110 -12 369 1
485 20 171 84 429 127 510 9 17 17 39 19 50 13 76 226 435 313 526 22 23 40
44 40 47 0 2 23 30 51 61 99 109 303 281 399 335 20 12 56 34 81 50 106 71
405 197 534 226 266 60 348 69 585 65 140 -3 230 -10 320 -25z m6631 -1025
c274 -401 499 -736 499 -742 0 -19 -84 -17 -100 2 -14 17 -35 21 -25 5 12 -20
-27 -22 -87 -5 -57 16 -62 16 -71 0 -8 -14 -21 -16 -100 -11 -51 3 -378 11
-727 16 -349 6 -659 13 -689 16 l-54 6 7 69 c8 87 72 338 91 359 8 9 13 19 10
22 -17 17 121 308 212 448 70 107 180 244 269 335 96 98 236 216 253 213 8 -2
238 -331 512 -733z m-2411 -754 c0 -27 -19 -36 -37 -18 -18 18 -9 37 18 37 12
0 19 -7 19 -19z m634 13 c13 -5 14 -27 9 -157 -6 -164 -16 -198 -49 -165 -15
15 -15 19 5 47 24 34 11 43 -20 15 -10 -9 -25 -14 -34 -11 -17 7 -20 42 -5 52
6 3 10 13 10 22 0 15 -2 14 -18 0 -38 -35 -75 -11 -52 33 16 31 4 37 -23 12
-32 -31 -52 -15 -42 34 l7 39 -24 -22 c-13 -13 -28 -23 -32 -23 -11 0 -1 48
18 94 l15 36 110 0 c60 0 116 -3 125 -6z m1306 -24 c730 -13 879 -19 915 -35
16 -7 52 -33 79 -57 49 -44 49 -44 37 -80 -7 -21 -20 -39 -29 -42 -64 -20
-315 -47 -379 -42 -60 5 -73 3 -73 -9 0 -8 -10 -17 -22 -20 -71 -15 -1363
-196 -1386 -193 -26 3 -27 6 -35 78 -9 94 -5 390 6 408 7 10 46 12 180 7 95
-3 413 -10 707 -15z m1010 -34 c0 -11 -19 -15 -25 -6 -3 5 1 10 9 10 9 0 16
-2 16 -4z m330 -46 c0 -13 -7 -20 -20 -20 -13 0 -20 7 -20 20 0 13 7 20 20 20
13 0 20 -7 20 -20z m-293 -5 c3 -9 2 -19 -1 -23 -8 -8 -38 10 -44 26 -6 18 38
14 45 -3z m353 -95 c0 -5 -5 -10 -11 -10 -5 0 -7 5 -4 10 3 6 8 10 11 10 2 0
4 -4 4 -10z m50 -15 c0 -8 -7 -15 -15 -15 -8 0 -15 7 -15 15 0 8 7 15 15 15 8
0 15 -7 15 -15z m-2993 -67 c57 -43 123 -117 123 -136 0 -27 -207 -55 -248
-33 -28 15 -28 23 9 125 21 57 37 86 47 86 8 0 40 -19 69 -42z m-5197 -3 c0
-8 -9 -15 -20 -15 -11 0 -20 7 -20 15 0 8 9 15 20 15 11 0 20 -7 20 -15z
m8185 -25 c10 -15 -5 -50 -20 -50 -17 0 -38 36 -30 50 8 13 42 13 50 0z
m-4051 -76 c19 -7 21 -40 4 -47 -29 -10 -53 25 -31 46 8 8 8 8 27 1z m3956
-35 c0 -5 -4 -9 -10 -9 -5 0 -10 7 -10 16 0 8 5 12 10 9 6 -3 10 -10 10 -16z
m-150 -9 c0 -11 -4 -20 -9 -20 -14 0 -23 18 -16 30 10 17 25 11 25 -10z m-120
-20 c0 -5 -4 -10 -10 -10 -5 0 -10 5 -10 10 0 6 5 10 10 10 6 0 10 -4 10 -10z
m-7486 -16 c8 -21 -1 -34 -24 -34 -22 0 -34 15 -26 35 7 20 42 19 50 -1z
m3786 -19 c0 -15 -35 -30 -50 -20 -13 8 -13 28 2 43 14 14 48 -2 48 -23z
m-3935 14 c10 -15 -1 -23 -20 -15 -9 3 -13 10 -10 16 8 13 22 13 30 -1z m7370
-59 c5 -91 7 -100 26 -100 20 0 52 -34 42 -44 -5 -4 4 -2 19 5 23 10 37 9 79
-4 28 -10 60 -17 70 -17 23 0 23 -7 4 -53 -22 -52 -19 -94 11 -144 27 -47 25
-59 -14 -74 -80 -31 -423 -129 -432 -124 -5 3 -20 -1 -32 -9 -43 -28 -766
-218 -816 -214 -15 1 -38 -5 -52 -14 -30 -19 -245 -72 -264 -65 -38 15 -184
309 -247 497 -51 154 -57 188 -36 195 6 3 196 32 422 64 288 42 413 57 422 50
9 -8 31 -5 77 11 68 22 627 110 685 107 l33 -2 3 -65z m-3271 31 c23 -25 13
-41 -25 -41 -29 0 -35 12 -23 44 8 21 27 20 48 -3z m-199 -56 c0 -21 -31 -33
-46 -18 -5 5 -7 17 -3 27 9 24 49 17 49 -9z m-17 -77 c-3 -25 -34 -36 -50 -20
-17 17 -1 42 27 42 22 0 26 -4 23 -22z m-13 -83 c0 -22 -31 -33 -47 -17 -17
17 -1 44 24 40 15 -2 23 -10 23 -23z m331 -120 c55 -32 91 -76 105 -128 13
-50 7 -90 -32 -212 -37 -116 -46 -119 -122 -34 -69 75 -122 174 -147 275 -19
74 -27 174 -14 187 7 7 151 -54 210 -88z m-332 56 c11 -18 -6 -41 -30 -41 -19
0 -24 5 -24 25 0 20 5 25 24 25 14 0 27 -4 30 -9z m1386 -28 c0 -67 -29 -176
-65 -250 -20 -40 -40 -73 -44 -73 -23 0 -94 122 -111 191 -13 51 -1 117 24
138 17 15 87 28 149 30 l47 1 0 -37z m-1382 -75 c-2 -20 -6 -24 -26 -20 -34 7
-39 31 -11 53 27 20 40 9 37 -33z m12 -54 c11 -12 10 -18 -3 -31 -8 -9 -23
-13 -31 -10 -19 8 -21 43 -3 50 20 9 24 8 37 -9z m1486 -35 c3 -6 1 -16 -5
-22 -9 -9 -14 -8 -21 3 -9 15 -4 30 10 30 5 0 12 -5 16 -11z m-1460 -62 c1
-15 9 -36 19 -47 15 -16 15 -22 5 -35 -7 -8 -19 -15 -27 -15 -19 0 -28 29 -14
43 15 15 14 38 -1 36 -28 -3 -38 2 -38 19 0 25 10 33 35 30 14 -2 20 -11 21
-31z m1458 2 c14 -3 29 -28 53 -89 18 -47 63 -147 100 -223 51 -104 64 -140
55 -146 -14 -9 -422 -94 -539 -112 -85 -14 -98 -10 -106 29 -3 16 -9 41 -12
54 -5 18 1 31 21 51 32 32 54 34 79 7 25 -27 37 -25 24 4 -7 14 -17 22 -25 19
-8 -3 -14 -2 -14 2 0 11 42 45 49 40 4 -2 15 7 25 21 11 13 23 24 28 24 13 0
38 26 38 39 0 5 9 13 20 16 11 3 20 10 20 15 0 5 13 24 28 42 16 18 32 41 35
51 6 16 14 18 50 12 l42 -6 -29 25 c-43 36 -30 60 26 51 39 -7 41 -6 29 9 -10
12 -23 15 -40 12 -14 -3 -20 -3 -13 0 6 3 9 10 6 16 -4 5 -1 21 7 34 7 13 15
20 18 15 3 -5 15 -10 25 -12z m-1408 -106 c7 -10 14 -25 14 -35 0 -9 6 -18 13
-21 6 -2 -3 -4 -21 -5 -35 -1 -53 21 -34 40 6 6 8 17 5 24 -7 20 7 17 23 -3z
m65 -103 c6 -16 17 -30 25 -30 8 0 18 -8 21 -17 9 -23 29 -43 42 -43 6 0 11
-5 11 -11 0 -16 26 -39 44 -39 9 0 16 -5 16 -11 0 -5 16 -17 35 -25 19 -8 35
-19 35 -25 0 -5 5 -7 10 -4 6 3 10 1 10 -4 0 -6 8 -11 18 -11 9 0 26 -7 36
-15 11 -8 30 -15 43 -15 20 0 23 -5 23 -34 0 -41 -7 -47 -38 -35 -18 7 -21 14
-16 33 7 29 -12 44 -21 16 -3 -11 -12 -20 -19 -20 -18 0 -39 27 -31 40 11 18
-5 30 -24 18 -24 -15 -55 -3 -47 18 9 23 -3 37 -20 23 -19 -16 -46 7 -42 35 2
17 -2 21 -27 21 -25 0 -30 4 -30 25 -1 20 -6 24 -23 23 -24 -3 -50 31 -32 42
16 10 1 25 -25 25 -26 0 -39 22 -22 39 19 19 38 12 48 -19z m597 -74 c19 -72
21 -90 10 -97 -26 -17 -198 12 -198 33 0 20 132 159 149 156 11 -2 23 -31 39
-92z m293 57 c27 -20 49 -40 49 -44 0 -14 -60 -50 -77 -47 -11 2 -21 21 -30
53 -23 90 -16 94 58 38z m-471 -253 c37 -11 95 -20 170 -24 25 -2 50 -4 57 -4
14 -2 37 -78 28 -92 -7 -11 -48 -13 -94 -4 -28 6 -31 10 -31 45 0 22 -5 39
-11 39 -7 0 -9 -12 -7 -30 5 -36 -4 -44 -39 -35 -22 5 -25 10 -21 40 3 24 0
35 -9 35 -7 0 -13 -11 -13 -24 0 -31 -14 -40 -41 -26 -17 9 -20 18 -15 41 3
16 1 29 -4 29 -6 0 -10 5 -10 10 0 12 -2 12 40 0z"/>
<path d="M10403 3220 c0 -25 2 -35 4 -22 2 12 2 32 0 45 -2 12 -4 2 -4 -23z"/>
<path d="M10436 3083 c-4 -5 -13 -8 -19 -8 -7 0 -15 -23 -18 -55 -3 -30 -14
-73 -23 -94 -9 -22 -14 -41 -12 -43 2 -3 7 5 11 17 4 13 12 19 21 16 10 -4 14
4 14 30 0 19 9 59 19 89 20 56 20 61 7 48z"/>
<path d="M10646 2916 c-13 -18 -48 -48 -75 -66 -50 -32 -70 -51 -32 -30 29 15
34 13 28 -12 -5 -18 0 -16 21 12 29 38 58 67 91 90 17 13 18 17 7 27 -12 10
-19 6 -40 -21z"/>
<path d="M10883 2643 c9 -2 23 -2 30 0 6 3 -1 5 -18 5 -16 0 -22 -2 -12 -5z"/>
<path d="M2371 3040 c-11 -6 -9 -14 9 -40 13 -18 31 -57 41 -88 10 -32 18 -49
18 -38 1 13 6 17 21 13 17 -4 15 2 -14 41 -18 26 -37 62 -41 79 -8 38 -15 45
-34 33z"/>
<path d="M2441 2834 c0 -11 3 -14 6 -6 3 7 2 16 -1 19 -3 4 -6 -2 -5 -13z"/>
<path d="M3128 2643 c6 -2 18 -2 25 0 6 3 1 5 -13 5 -14 0 -19 -2 -12 -5z"/>
<path d="M1968 2563 c6 -2 18 -2 25 0 6 3 1 5 -13 5 -14 0 -19 -2 -12 -5z"/>
<path d="M2513 2025 c0 -33 2 -45 4 -27 2 18 2 45 0 60 -2 15 -4 0 -4 -33z"/>
<path d="M7737 1626 c-6 -14 12 -26 39 -26 18 0 10 16 -16 30 -13 7 -19 6 -23
-4z"/>
<path d="M7690 1556 c0 -8 7 -17 16 -20 30 -11 37 -6 19 14 -21 23 -35 26 -35
6z"/>
<path d="M7635 1501 c-3 -6 3 -15 14 -20 28 -16 33 -14 21 9 -12 22 -25 26
-35 11z"/>
<path d="M7576 1451 c-6 -10 22 -37 29 -29 8 7 -5 38 -15 38 -5 0 -11 -4 -14
-9z"/>
<path d="M7442 1371 c-9 -6 -7 -12 8 -26 15 -14 20 -15 20 -4 0 23 -15 38 -28
30z"/>
<path d="M7130 1281 c0 -11 5 -23 10 -26 6 -4 10 5 10 19 0 14 -4 26 -10 26
-5 0 -10 -9 -10 -19z"/>
</g>
</svg>
