<svg version="1.1" id="Layer_1" xmlns="http://www.w3.org/2000/svg" xmlns:xlink="http://www.w3.org/1999/xlink" x="0px" y="0px"
	 viewBox="0 0 512 512" style="enable-background:new 0 0 512 512;" xml:space="preserve">
<path id="XMLID_5_" d="M254.1,96.8L254.1,96.8c-27,0-48.4-21.4-48.4-48.4S227.1,0,254.1,0s48.4,21.4,48.4,48.4
		c0,13-4.7,25.1-14,34.4C279.3,91.2,267.2,96.8,254.1,96.8z M216.9,512c-15.8,0-28.9-11.2-28.9-32.6l0.9-296h-10.2v111.7
		c0,10.2-2.8,15.8-6.5,19.5c-4.7,4.7-9.3,6.5-15.8,6.5s-11.2-2.8-15.8-6.5c-3.7-3.7-6.5-9.3-6.5-19.5V165.7c0-14.9,4.7-29.8,14.9-41
		c11.2-12.1,25.1-19.5,41.9-19.5h130.3c16.8,0,30.7,6.5,41.9,19.5c10.2,11.2,14.9,26.1,14.9,41v129.4c0,7.4-1.9,14.9-7.4,19.5
		c-4.7,4.7-10.2,6.5-16.8,6.5s-12.1-2.8-16.8-6.5c-5.6-4.7-7.4-12.1-7.4-19.5V183.4h-9.3v296c0,21.4-14,32.6-29.8,32.6
		c-14,0-27.9-10.2-28.9-31.7V329.5h-13v149.9C246.7,500.8,232.7,512,216.9,512z"/>
</svg>
